<?xml version="1.0" encoding="utf-8"?>
<!-- Generator: Adobe Illustrator 17.0.0, SVG Export Plug-In . SVG Version: 6.00 Build 0)  -->
<!DOCTYPE svg PUBLIC "-//W3C//DTD SVG 1.1//EN" "http://www.w3.org/Graphics/SVG/1.1/DTD/svg11.dtd">
<svg version="1.1" id="Layer_1" xmlns="http://www.w3.org/2000/svg" xmlns:xlink="http://www.w3.org/1999/xlink" x="0px" y="0px"
	 width="34px" height="34px" viewBox="0 0 34 34" enable-background="new 0 0 34 34" xml:space="preserve">
<path id="x_circle_1_" fill="#2D3244" d="M17,3.66c7.355,0,13.34,5.985,13.34,13.34S24.355,30.34,17,30.34S3.66,24.355,3.66,17
	S9.645,3.66,17,3.66 M17,2.5C8.992,2.5,2.5,8.992,2.5,17S8.992,31.5,17,31.5S31.5,25.008,31.5,17S25.008,2.5,17,2.5L17,2.5z
	 M22.56,10.62L17,16.18l-5.56-5.56l-0.82,0.82L16.18,17l-5.56,5.56l0.82,0.82L17,17.82l5.56,5.56l0.82-0.82L17.82,17l5.56-5.56
	L22.56,10.62z"/>
</svg>
