<?xml version="1.0" encoding="utf-8"?>
<!-- Generator: Adobe Illustrator 17.0.0, SVG Export Plug-In . SVG Version: 6.00 Build 0)  -->
<!DOCTYPE svg PUBLIC "-//W3C//DTD SVG 1.1//EN" "http://www.w3.org/Graphics/SVG/1.1/DTD/svg11.dtd">
<svg version="1.1" id="Layer_1" xmlns="http://www.w3.org/2000/svg" xmlns:xlink="http://www.w3.org/1999/xlink" x="0px" y="0px"
	 width="34px" height="34px" viewBox="0 0 34 34" enable-background="new 0 0 34 34" xml:space="preserve">
<path id="_x3E__circle_2_" fill="#2C3243" d="M17,30.34C9.645,30.34,3.66,24.355,3.66,17S9.645,3.66,17,3.66S30.34,9.645,30.34,17
	S24.355,30.34,17,30.34 M17,31.5c8.008,0,14.5-6.492,14.5-14.5S25.008,2.5,17,2.5S2.5,8.992,2.5,17S8.992,31.5,17,31.5L17,31.5z
	 M19.687,23.38l0.793-0.82L15.106,17l5.374-5.56l-0.793-0.82L13.52,17L19.687,23.38z"/>
</svg>
